<svg width="200" height="49" viewBox="0 0 200 49" fill="none" xmlns="http://www.w3.org/2000/svg">
<path d="M10.5 41V44.6074C8.99828 43.5599 7.61875 42.3494 6.38867 41H10.5ZM42.6113 41C38.6576 45.3373 33.1665 48.2471 27 48.8721V41H42.6113ZM2.5 32.5V35.2881C2.05781 34.3882 1.66772 33.458 1.33691 32.5H2.5ZM10.5 24V31.5H1.0166C0.356392 29.2819 0 26.9326 0 24.5C0 24.3329 0.00253073 24.1663 0.00585938 24H10.5ZM2 23H0.046875C0.194719 20.5523 0.701093 18.2017 1.51562 16H2V23ZM17.5 23H3V16H17.5V23ZM33.5 23H18.5V16H33.5V23ZM47.4844 16C48.2989 18.2017 48.8053 20.5523 48.9531 23H34.5V16H47.4844ZM10.5 9V15H1.91113C2.82847 12.8214 4.05191 10.8038 5.52734 9H10.5ZM17.5 8H6.38867C9.35045 4.75085 13.1752 2.30275 17.5 1.01562V8ZM24.5 0C27.4886 0 30.3519 0.536017 33 1.51562V8H18.5V0.741211C20.4201 0.257865 22.4299 0 24.5 0ZM34 1.91016C37.3012 3.30008 40.2342 5.39222 42.6113 8H34V1.91016ZM26 48.9521C25.5038 48.9821 25.0037 49 24.5 49C19.7238 49 15.2681 47.6312 11.5 45.2676V41H26V48.9521ZM18 32.5V40H5.52734C4.78506 39.0925 4.10784 38.1301 3.5 37.1211V32.5H18ZM33.5 32.5V40H19V32.5H33.5ZM47.6631 32.5C46.7114 35.2561 45.2813 37.7887 43.4727 40H34.5V32.5H47.6631ZM26 24V31.5H11.5V24H26ZM43.5 24V31.5H27V24H43.5ZM49 24.5C49 26.9326 48.6436 29.2819 47.9834 31.5H44.5V24H48.9941C48.9975 24.1663 49 24.3329 49 24.5ZM26 9V15H11.5V9H26ZM43.4727 9C44.9481 10.8038 46.1715 12.8214 47.0889 15H27V9H43.4727Z" fill="#469EAB"/>
<path d="M68.2433 19.148C67.6673 19.148 67.1473 19.284 66.6833 19.556C66.2353 19.828 65.8513 20.22 65.5313 20.732C65.2113 21.228 64.9713 21.836 64.8113 22.556C64.6513 23.276 64.5713 24.084 64.5713 24.98C64.5713 26.196 64.7073 27.236 64.9793 28.1C65.2513 28.948 65.6673 29.596 66.2273 30.044C66.7873 30.492 67.4993 30.716 68.3633 30.716C69.0513 30.716 69.7233 30.636 70.3793 30.476C71.0513 30.316 71.7473 30.092 72.4673 29.804V32.852C71.7633 33.156 71.0513 33.38 70.3313 33.524C69.6113 33.668 68.8273 33.74 67.9793 33.74C66.2673 33.74 64.8673 33.38 63.7793 32.66C62.6913 31.924 61.8833 30.9 61.3553 29.588C60.8433 28.26 60.5873 26.716 60.5873 24.956C60.5873 23.66 60.7553 22.476 61.0913 21.404C61.4273 20.316 61.9233 19.38 62.5793 18.596C63.2353 17.812 64.0353 17.204 64.9793 16.772C65.9393 16.34 67.0353 16.124 68.2673 16.124C69.0673 16.124 69.9073 16.236 70.7873 16.46C71.6833 16.668 72.4593 16.956 73.1153 17.324L71.8913 20.276C71.2993 19.972 70.6993 19.708 70.0913 19.484C69.4993 19.26 68.8833 19.148 68.2433 19.148ZM86.3517 23.084H82.2717V33.5H78.4557V23.084H74.3757V20.396H86.3517V23.084ZM95.7589 20.156C97.1349 20.156 98.2309 20.732 99.0469 21.884C99.8789 23.02 100.295 24.7 100.295 26.924C100.295 28.412 100.095 29.668 99.6949 30.692C99.2949 31.7 98.7429 32.46 98.0389 32.972C97.3349 33.484 96.5269 33.74 95.6149 33.74C95.0389 33.74 94.5429 33.66 94.1269 33.5C93.7109 33.34 93.3589 33.132 93.0709 32.876C92.7989 32.62 92.5589 32.348 92.3509 32.06H92.1829C92.2309 32.364 92.2709 32.684 92.3029 33.02C92.3349 33.34 92.3509 33.66 92.3509 33.98V39.26H88.5109V20.396H91.6309L92.1829 22.1H92.3509C92.5589 21.748 92.8149 21.428 93.1189 21.14C93.4229 20.836 93.7909 20.596 94.2229 20.42C94.6549 20.244 95.1669 20.156 95.7589 20.156ZM94.3909 23.012C93.8949 23.012 93.4949 23.14 93.1909 23.396C92.8869 23.652 92.6709 24.044 92.5429 24.572C92.4149 25.084 92.3509 25.732 92.3509 26.516V26.9C92.3509 27.748 92.4149 28.468 92.5429 29.06C92.6709 29.636 92.8869 30.076 93.1909 30.38C93.4949 30.684 93.9109 30.836 94.4389 30.836C94.8709 30.836 95.2309 30.684 95.5189 30.38C95.8069 30.076 96.0229 29.628 96.1669 29.036C96.3109 28.444 96.3829 27.724 96.3829 26.876C96.3829 25.596 96.2149 24.636 95.8789 23.996C95.5589 23.34 95.0629 23.012 94.3909 23.012ZM114.446 26.924C114.446 28.012 114.302 28.98 114.014 29.828C113.742 30.676 113.342 31.396 112.814 31.988C112.286 32.564 111.638 33.004 110.87 33.308C110.118 33.596 109.27 33.74 108.326 33.74C107.446 33.74 106.63 33.596 105.878 33.308C105.126 33.004 104.478 32.564 103.934 31.988C103.406 31.396 102.99 30.676 102.686 29.828C102.398 28.98 102.254 28.012 102.254 26.924C102.254 25.468 102.502 24.244 102.998 23.252C103.494 22.244 104.198 21.476 105.11 20.948C106.022 20.42 107.118 20.156 108.398 20.156C109.582 20.156 110.622 20.42 111.518 20.948C112.43 21.476 113.142 22.244 113.654 23.252C114.182 24.244 114.446 25.468 114.446 26.924ZM106.166 26.924C106.166 27.788 106.238 28.516 106.382 29.108C106.542 29.684 106.782 30.124 107.102 30.428C107.438 30.716 107.862 30.86 108.374 30.86C108.902 30.86 109.318 30.716 109.622 30.428C109.942 30.124 110.174 29.684 110.318 29.108C110.462 28.516 110.534 27.788 110.534 26.924C110.534 26.06 110.462 25.34 110.318 24.764C110.174 24.188 109.934 23.756 109.598 23.468C109.278 23.18 108.862 23.036 108.35 23.036C107.566 23.036 107.006 23.364 106.67 24.02C106.334 24.66 106.166 25.628 106.166 26.924ZM129.01 14.756C128.93 15.588 128.698 16.324 128.314 16.964C127.93 17.588 127.354 18.076 126.586 18.428C125.834 18.78 124.826 18.956 123.562 18.956C122.298 18.956 121.29 18.788 120.538 18.452C119.786 18.1 119.226 17.612 118.858 16.988C118.506 16.364 118.298 15.62 118.234 14.756H121.522C121.586 15.636 121.786 16.22 122.122 16.508C122.458 16.796 122.946 16.94 123.586 16.94C124.146 16.94 124.61 16.788 124.978 16.484C125.362 16.164 125.586 15.588 125.65 14.756H129.01ZM120.634 25.58C120.634 25.852 120.626 26.188 120.61 26.588C120.594 26.988 120.578 27.396 120.562 27.812C120.546 28.228 120.522 28.596 120.49 28.916C120.474 29.236 120.458 29.46 120.442 29.588L125.65 20.396H130.018V33.5H126.418V28.268C126.418 27.836 126.426 27.364 126.442 26.852C126.474 26.324 126.506 25.836 126.538 25.388C126.57 24.924 126.594 24.572 126.61 24.332L121.402 33.5H117.058V20.396H120.634V25.58ZM144.005 16.364V19.364H137.429V33.5H133.541V16.364H144.005ZM152.267 20.156C153.643 20.156 154.739 20.732 155.555 21.884C156.387 23.02 156.803 24.7 156.803 26.924C156.803 28.412 156.603 29.668 156.203 30.692C155.803 31.7 155.251 32.46 154.547 32.972C153.843 33.484 153.035 33.74 152.123 33.74C151.547 33.74 151.051 33.66 150.635 33.5C150.219 33.34 149.867 33.132 149.579 32.876C149.307 32.62 149.067 32.348 148.859 32.06H148.691C148.739 32.364 148.779 32.684 148.811 33.02C148.843 33.34 148.859 33.66 148.859 33.98V39.26H145.019V20.396H148.139L148.691 22.1H148.859C149.067 21.748 149.323 21.428 149.627 21.14C149.931 20.836 150.299 20.596 150.731 20.42C151.163 20.244 151.675 20.156 152.267 20.156ZM150.899 23.012C150.403 23.012 150.003 23.14 149.699 23.396C149.395 23.652 149.179 24.044 149.051 24.572C148.923 25.084 148.859 25.732 148.859 26.516V26.9C148.859 27.748 148.923 28.468 149.051 29.06C149.179 29.636 149.395 30.076 149.699 30.38C150.003 30.684 150.419 30.836 150.947 30.836C151.379 30.836 151.739 30.684 152.027 30.38C152.315 30.076 152.531 29.628 152.675 29.036C152.819 28.444 152.891 27.724 152.891 26.876C152.891 25.596 152.723 24.636 152.387 23.996C152.067 23.34 151.571 23.012 150.899 23.012ZM164.977 20.132C166.593 20.132 167.841 20.516 168.721 21.284C169.617 22.036 170.065 23.196 170.065 24.764V33.5H167.401L166.657 31.724H166.561C166.209 32.188 165.849 32.572 165.481 32.876C165.113 33.18 164.689 33.396 164.209 33.524C163.729 33.668 163.145 33.74 162.457 33.74C161.737 33.74 161.089 33.596 160.513 33.308C159.953 33.004 159.505 32.548 159.169 31.94C158.833 31.316 158.665 30.532 158.665 29.588C158.665 28.196 159.121 27.172 160.033 26.516C160.961 25.844 162.321 25.476 164.113 25.412L166.225 25.34V24.764C166.225 24.076 166.073 23.572 165.769 23.252C165.465 22.932 165.049 22.772 164.521 22.772C163.977 22.772 163.409 22.868 162.817 23.06C162.225 23.236 161.633 23.46 161.041 23.732L159.865 21.308C160.569 20.94 161.345 20.652 162.193 20.444C163.057 20.236 163.985 20.132 164.977 20.132ZM165.121 27.476C164.177 27.508 163.513 27.716 163.129 28.1C162.761 28.484 162.577 28.988 162.577 29.612C162.577 30.156 162.705 30.548 162.961 30.788C163.233 31.012 163.585 31.124 164.017 31.124C164.625 31.124 165.145 30.9 165.577 30.452C166.025 29.988 166.249 29.34 166.249 28.508V27.428L165.121 27.476ZM177.101 20.396V25.436H181.157V20.396H184.973V33.5H181.157V28.1H177.101V33.5H173.261V20.396H177.101ZM199.109 23.084H195.029V33.5H191.213V23.084H187.133V20.396H199.109V23.084Z" fill="#486A6F"/>
</svg>
